<?xml version="1.0" encoding="utf-8"?>
<!-- Generator: Adobe Illustrator 18.0.0, SVG Export Plug-In . SVG Version: 6.00 Build 0)  -->
<!DOCTYPE svg PUBLIC "-//W3C//DTD SVG 1.1//EN" "http://www.w3.org/Graphics/SVG/1.1/DTD/svg11.dtd">
<svg version="1.1" id="Layer_1" xmlns="http://www.w3.org/2000/svg" xmlns:xlink="http://www.w3.org/1999/xlink" x="0px" y="0px"
	 viewBox="0 90 612 612" enable-background="new 0 90 612 612" xml:space="preserve">
<g>
	<g>
		<path fill="#007BFF" d="M535.6,387.5h-20.4c-5.2,0-9.5,4.3-9.5,9.5s4.3,9.5,9.5,9.5h20.4c5.2,0,9.5-4.3,9.5-9.5
			S540.9,387.5,535.6,387.5z"/>
	</g>
</g>
<g>
	<g>
		<path fill="#007BFF" d="M586.6,285.6h-54.4c-15.7-23.9-36.7-44.7-60.9-60c-23.8-15.3-51-25.3-79-29.4v-94.6c0-5.2-4.3-9.5-9.5-9.5
			h-61.2H76.8c-5.2,0-9.5,4.3-9.5,9.5v224.1c0,5.2,4.3,9.5,9.5,9.5h91.8c-5.4,16.9-8.6,34.4-9.4,52.2h-113c-5.2,0-9.5,4.3-9.5,9.5
			v245.2H25.8c-5.2,0-9.5,4.3-9.5,9.5v40.9c0,5.2,4.3,9.5,9.5,9.5h20.4h346.6h20.4c5.2,0,9.5-4.3,9.5-9.5v-40.7
			c0-5.2-4.3-9.5-9.5-9.5h-10.8v-46c44.6-8.9,84.8-32.5,114.5-67.3h69.6c5.2,0,9.5-4.3,9.5-9.5v-61.1V295.1
			C596.2,289.9,591.9,285.6,586.6,285.6z M331,207.7v-96.6h42.1v93.4l0,0v111.6H331V207.7z M86.4,316.1v-205h225.6v96.6v108.4H182.2
			H86.4z M55.8,406.5h112.8h214.7v181.6v54H55.8V406.5z M403.7,661.3v21.7h-10.8H46.2H35.3v-21.7h10.8h346.6H403.7z M402.4,576.7
			V397c0-5.2-4.3-9.5-9.5-9.5H178.4c1-17.9,4.4-35.4,10.4-52.2h132.7h61.2c5.2,0,9.5-4.3,9.5-9.5V215.4c46.1,7.6,88.1,33,116.6,70.2
			h-44.6c-5.2,0-9.5,4.3-9.5,9.5v163v61.1c0,5.2,4.3,9.5,9.5,9.5h26.6C466.3,552.6,435.8,569.2,402.4,576.7z M577,509.7h-64.5h-38.6
			v-42.1h103.3v42.1H577z M577,448.6H473.7V304.7h53.2l0,0l0,0h50v143.9H577z"/>
	</g>
</g>
<g>
	<g>
		<path fill="#007BFF" d="M352.1,372.2c-5.2,0-9.5,4.3-9.5,9.5v30.6c0,5.2,4.3,9.5,9.5,9.5s9.5-4.3,9.5-9.5v-30.6
			C361.7,376.3,357.4,372.2,352.1,372.2z"/>
	</g>
</g>
</svg>
