<?xml version="1.0" encoding="utf-8"?>
<!-- Generator: Adobe Illustrator 18.0.0, SVG Export Plug-In . SVG Version: 6.00 Build 0)  -->
<!DOCTYPE svg PUBLIC "-//W3C//DTD SVG 1.1//EN" "http://www.w3.org/Graphics/SVG/1.1/DTD/svg11.dtd">
<svg version="1.1" id="Layer_1" xmlns="http://www.w3.org/2000/svg" xmlns:xlink="http://www.w3.org/1999/xlink" x="0px" y="0px"
	 viewBox="0 90 612 612" enable-background="new 0 90 612 612" xml:space="preserve">
<g>
	<g>
		<path fill="#007BFF" d="M507.5,267.6c-8.5-18.7-18.7-36.3-30.3-52.2c-3.1-4.2-9-5.2-13.3-2.1c-4.2,3.1-5.2,9-2.1,13.3
			c10.8,14.9,20.4,31.4,28.4,49c1.6,3.5,5,5.6,8.6,5.6c1.3,0,2.6-0.3,3.9-0.9C507.6,278,509.7,272.4,507.5,267.6z"/>
	</g>
</g>
<g>
	<g>
		<path fill="#007BFF" d="M527.4,324.9c-2.6-10.6-5.8-21.1-9.4-31.2c-1.8-4.9-7.2-7.5-12.1-5.8s-7.5,7.2-5.8,12.1
			c3.4,9.6,6.4,19.5,8.9,29.5c1.1,4.3,4.9,7.2,9.2,7.2c0.8,0,1.5-0.1,2.3-0.3C525.6,335.1,528.7,330,527.4,324.9z"/>
	</g>
</g>
<g>
	<g>
		<path fill="#007BFF" d="M513.1,206.1C460,153,390.2,122.9,315.5,120.5v-21c0-5.2-4.2-9.5-9.5-9.5c-5.2,0-9.5,4.2-9.5,9.5v21
			C221.8,122.9,152,153,98.9,206.1C43.6,261.4,13.2,335,13.2,413.2c0,5.2,4.2,9.5,9.5,9.5H25c4.2,0,7.9-2.8,9.1-6.8
			c5.9-19.8,24.5-33.7,45.2-33.7s39.3,13.9,45.2,33.7c1.2,4,4.9,6.8,9.1,6.8h4.7c0.1,0,0.2,0,0.3,0s0.3,0,0.4,0h1.4
			c5.2,0,9.5-4.2,9.5-9.5c0-1-0.2-1.9-0.4-2.8c7.5-17,24.4-28.2,43.2-28.2c18.9,0,35.6,11,43.1,28.2c0,0.9,0,1.9,0,2.8
			c0,5.2,4.2,9.5,9.5,9.5h0.5c0.2,0,0.5,0,0.7,0s0.3,0,0.5,0h4.7c4.2,0,7.9-2.8,9.1-6.8c5-16.7,19-29.2,35.7-32.7v253.2v4.6
			c0,1,0.1,1.9,0.4,2.8c3.7,32.7,31.5,58.3,65.2,58.3c36.2,0,65.7-29.5,65.7-65.7c0-5.2-4.2-9.5-9.5-9.5c-5.2,0-9.5,4.2-9.5,9.5
			c0,25.7-20.9,46.7-46.7,46.7s-46.7-20.9-46.7-46.7V383.2c16.7,3.5,30.7,16,35.7,32.7c1.2,4,4.9,6.8,9.1,6.8h4.7
			c0.2,0,0.5,0,0.7-0.1c0.3,0,0.7,0.1,1,0.1c5.2,0,9.5-4.2,9.5-9.5c0-0.9,0-1.9,0-2.8c7.6-17.2,24.3-28.2,43.1-28.2
			c19.7,0,37.2,12.2,44.1,30.5v0.5c0,5.2,4.2,9.5,9.5,9.5c0.1,0,0.3,0,0.4,0s0.2,0,0.3,0h4.7c4.2,0,7.9-2.8,9.1-6.8
			c5.9-19.8,24.5-33.7,45.2-33.7c20.7,0,39.3,13.9,45.2,33.7c1.2,4,4.9,6.8,9.1,6.8h2.4c5.2,0,9.5-4.2,9.5-9.5
			C598.8,335,568.4,261.4,513.1,206.1z M130.2,387.3c-12.3-14.8-30.9-24-50.9-24c-17.2,0-33.3,6.8-45.3,18.1
			C46.7,272,124.1,182.1,226.8,151c-17.1,14.2-32.8,33.1-46.6,56.3C151.2,256.1,133.8,319.3,130.2,387.3z M236.2,379.5
			c-11.8-10.3-27.1-16.3-43.6-16.3c-16.1,0-31.2,5.8-42.9,15.8c8.5-117.4,60.1-212.1,126.1-234.6c-8.3,14.8-15.5,36.4-21.7,64.8
			C244.1,255.5,237.8,315.1,236.2,379.5z M306,363.2c-20,0-38.6,9.2-51,24.1c1.3-66,7.5-127.2,17.7-174c12.7-58.5,27.4-74,33.3-74
			s20.6,15.5,33.3,74c10.2,46.9,16.4,108,17.7,174C344.6,372.5,326,363.2,306,363.2z M419.3,363.2c-16.5,0-31.8,6-43.6,16.3
			c-1.6-64.4-7.9-124-17.9-170.3c-6.2-28.4-13.4-50-21.7-64.8c66,22.5,117.6,117.2,126.1,234.6C450.5,369.1,435.5,363.2,419.3,363.2
			z M532.7,363.2c-20,0-38.6,9.2-50.9,24c-3.6-68-21-131.1-50-180c-13.8-23.2-29.5-42.1-46.6-56.3C487.9,182.1,565.3,272,578,381.3
			C566,370,549.9,363.2,532.7,363.2z"/>
	</g>
</g>
</svg>
