<?xml version="1.0" encoding="utf-8"?>
<!-- Generator: Adobe Illustrator 18.0.0, SVG Export Plug-In . SVG Version: 6.00 Build 0)  -->
<!DOCTYPE svg PUBLIC "-//W3C//DTD SVG 1.1//EN" "http://www.w3.org/Graphics/SVG/1.1/DTD/svg11.dtd">
<svg version="1.1" id="Layer_1" xmlns="http://www.w3.org/2000/svg" xmlns:xlink="http://www.w3.org/1999/xlink" x="0px" y="0px"
	 viewBox="0 0 60 60" enable-background="new 0 0 60 60" xml:space="preserve">
<g>
	<g>
		<path fill="#4475BA" d="M55.7,47.6V20.9c0-1.6-1.3-2.9-2.9-2.9s-2.9,1.3-2.9,2.9v27.2c-1,0.6-1.9,1.5-2.4,2.6H32.8v-9.4
			c0-1.6-1.3-2.9-2.9-2.9c-1.6,0-2.9,1.3-2.9,2.9v9.4H12.5c-0.7-1.3-1.7-2.3-3.1-3V33.5h7.5c1.6,0,2.9-1.3,2.9-2.9
			c0-1.6-1.3-2.9-2.9-2.9H9.4V14.3c1.3-0.6,2.3-1.6,3-2.8h25.3c1.6,0,2.9-1.3,2.9-2.9s-1.3-2.9-2.9-2.9H12.5C11.5,3.5,9.1,2,6.6,2
			C2.9,2,0,4.9,0,8.5c0,2.4,1.4,4.6,3.5,5.7v33.6C1.4,49,0,51.1,0,53.6C0,57.1,2.9,60,6.6,60c2.5,0,4.8-1.4,5.9-3.6h34.9
			c1.1,2.2,3.4,3.6,5.9,3.6c3.6,0,6.6-2.9,6.6-6.4C59.9,50.9,58.2,48.5,55.7,47.6z M13.1,7.7h24.6c0.5,0,1,0.4,1,1c0,0.5-0.4,1-1,1
			H13.1c0.1-0.4,0.1-0.7,0.1-1.1C13.2,8.2,13.1,7.9,13.1,7.7z M16.9,29.6c0.5,0,1,0.4,1,1c0,0.5-0.4,1-1,1H8.4c-0.5,0-1,0.4-1,1
			v14.7c-0.3,0-0.6-0.1-0.8-0.1c-0.4,0-0.7,0-1.1,0.1V14.9c0.4,0.1,0.7,0.1,1.1,0.1c0.3,0,0.6,0,0.8-0.1v13.8c0,0.5,0.4,1,1,1
			L16.9,29.6L16.9,29.6z M2,8.5C2,6,4,4,6.6,4c2,0,3.7,1.2,4.4,3.1c0.2,0.5,0.2,1,0.2,1.5c0,0.6-0.1,1.1-0.3,1.7l0,0
			c-0.5,1.2-1.5,2.2-2.8,2.6C7.6,13,7.1,13,6.6,13c-0.6,0-1.2-0.1-1.7-0.3l0,0C3.1,12,2,10.4,2,8.5z M10.9,55.1L10.9,55.1
			c-0.7,1.8-2.4,3-4.3,3c-2.5,0-4.6-2-4.6-4.5c0-1.9,1.1-3.5,2.9-4.2l0,0C5.4,49.1,6,49,6.6,49c0.5,0,1,0.1,1.5,0.2
			c1.3,0.4,2.3,1.4,2.8,2.7c0.2,0.5,0.3,1,0.3,1.6C11.2,54.1,11.1,54.6,10.9,55.1z M46.8,54.5H13.1c0-0.3,0.1-0.6,0.1-1s0-0.6-0.1-1
			h14.8c0.5,0,1-0.4,1-1V41.3c0-0.5,0.4-1,1-1s1,0.4,1,1v10.3c0,0.5,0.4,1,1,1h15c0,0.3-0.1,0.6-0.1,1
			C46.7,53.9,46.8,54.2,46.8,54.5z M51.8,20.9c0-0.5,0.4-1,1-1c0.5,0,1,0.4,1,1v26.3c-0.1,0-0.3,0-0.5,0c-0.5,0-1,0.1-1.5,0.2V20.9
			L51.8,20.9z M53.3,58.1c-1.9,0-3.7-1.2-4.3-3l0,0c-0.2-0.5-0.3-1-0.3-1.6s0.1-1.1,0.3-1.6c0.4-1.1,1.2-2,2.3-2.5
			c0.6-0.3,1.3-0.5,2-0.5c0.4,0,0.8,0,1.2,0.1c2,0.5,3.4,2.3,3.4,4.4C57.9,56,55.8,58.1,53.3,58.1z"/>
	</g>
</g>
<g>
	<g>
		<path fill="#4475BA" d="M59.7,5.3l-5.2-5.1C54.4,0.1,54.1,0,53.9,0c-0.3,0-0.5,0.1-0.7,0.3l-23.5,23l-5.2,5.1c0,0,0,0,0,0
			c0,0,0,0,0,0c0,0,0,0,0,0l0,0c0,0,0,0,0,0c0,0,0,0,0,0c0,0,0,0,0,0c0,0,0,0,0,0c0,0,0,0,0,0c0,0,0,0,0,0s0,0,0,0c0,0,0,0,0,0.1
			c0,0,0,0,0,0l-1.3,3.8l-1.2,3.6l-1.4,1.4c-0.4,0.4-0.4,1,0,1.4c0.2,0.2,0.4,0.3,0.7,0.3s0.5-0.1,0.7-0.3l1.4-1.4l7.5-2.5
			c0,0,0,0,0,0c0,0,0,0,0.1,0c0,0,0,0,0,0s0,0,0,0c0,0,0,0,0,0c0,0,0,0,0,0c0,0,0,0,0,0c0,0,0,0,0,0c0,0,0,0,0,0c0,0,0,0,0,0
			s0,0,0,0c0,0,0,0,0,0c0,0,0,0,0,0L44,22.2c0,0,0,0,0,0L59.7,6.7C60.1,6.3,60.1,5.7,59.7,5.3z M24.2,35.1l0.7-2l0.8-2.3l2.9,2.9
			L24.2,35.1z M42.6,20.8C42.6,20.8,42.6,20.8,42.6,20.8l-12.2,12L26.6,29l4.5-4.4L53.9,2.3L57.6,6L42.6,20.8z"/>
	</g>
</g>
</svg>
