<?xml version="1.0" encoding="utf-8"?>
<!-- Generator: Adobe Illustrator 18.0.0, SVG Export Plug-In . SVG Version: 6.00 Build 0)  -->
<!DOCTYPE svg PUBLIC "-//W3C//DTD SVG 1.1//EN" "http://www.w3.org/Graphics/SVG/1.1/DTD/svg11.dtd">
<svg version="1.1" id="Layer_1" xmlns="http://www.w3.org/2000/svg" xmlns:xlink="http://www.w3.org/1999/xlink" x="0px" y="0px"
	 viewBox="0 90 612 612" enable-background="new 0 90 612 612" xml:space="preserve">
<g>
	<g>
		<path fill="#007BFF" d="M611,688.1L462.8,391.7L314.6,95.3c-1.6-3.2-4.9-5.3-8.6-5.3s-6.9,2.1-8.6,5.3L149.2,391.7L1,688.1
			c-1.5,3-1.3,6.5,0.4,9.3c1.7,2.8,4.8,4.5,8.2,4.5H306l0,0l0,0l0,0l0,0h296.4c3.3,0,6.4-1.7,8.2-4.5
			C612.3,694.6,612.5,691.1,611,688.1z M306,121l132.7,265.4H173.3L306,121z M25.1,682.8l132.7-265.4l132.7,265.4H25.1z M306,671
			L173.3,405.6h265.4L306,671z M321.5,682.8l132.7-265.4l132.7,265.4H321.5z"/>
	</g>
</g>
</svg>
